<?xml version="1.0" encoding="UTF-8" standalone="no"?>
<!-- Created with Inkscape (http://www.inkscape.org/) -->

<svg
   xmlns:dc="http://purl.org/dc/elements/1.1/"
   xmlns:cc="http://creativecommons.org/ns#"
   xmlns:rdf="http://www.w3.org/1999/02/22-rdf-syntax-ns#"
   xmlns:svg="http://www.w3.org/2000/svg"
   xmlns="http://www.w3.org/2000/svg"
   version="1.1"
   width="32"
   height="32">
  <rect
      width="32"
      height="32"
      x="0"
      y="0"
      style="fill:#9ad8ee;fill-opacity:1;fill-rule:nonzero;stroke:none" />
  <path
      d="m 8.02359,6.59889 c -0.17316,0.01 -0.23991,0.06 -0.23991,0.06 -0.86969,2.20168 -0.34485,3.79413 -0.17994,4.19853 -1.02281,1.11802 -1.64942,2.54324 -1.64942,4.2885 0,6.12707 3.73707,7.5138 7.28745,7.91723 -0.45742,0.3995 -0.84438,1.09564 -0.98966,2.12925 C 11.3412,25.60075 9,26.31602 7.57375,23.87286 c 0,0 -0.85425,-1.53557 -2.45914,-1.64942 0,0 -1.54174,-0.0327 -0.09,0.95966 0,0 1.04203,0.52283 1.76938,2.36917 0,0 0.95055,3.09515 5.39811,2.12926 0.005,0.86 -0.0216,2.63563 -0.03,4.31849 l 7.97721,0 0,-5.9979 c 0,-1.492 -0.50537,-2.47522 -1.07962,-2.96896 3.56216,-0.39558 7.31743,-1.74448 7.31743,-7.88724 0,-1.74526 -0.62465,-3.17048 -1.64943,-4.2885 0.16492,-0.4044 0.6927,-1.99685 -0.17993,-4.19853 0,0 -1.32573,-0.44975 -4.37846,1.61943 C 18.89228,7.92398 17.53824,7.74451 16.1807,7.73851 14.8212,7.74451 13.4372,7.92398 12.1621,8.27832 9.87109,6.72645 8.54303,6.56946 8.02355,6.59891 z"
      style="fill:#222121;fill-opacity:1;fill-rule:nonzero;stroke:none" />
  <path
      d="m 11.96279,14.17591 c -0.60356,0.004 -1.02262,0.065 -1.34953,0.14994 -0.59411,0.15437 -0.94305,0.37115 -1.43949,0.8697 -0.52406,0.52623 -0.82104,0.99119 -1.01965,1.58944 -0.11324,0.34102 -0.14882,0.46151 -0.14994,1.07963 -10e-4,0.9099 0.13599,1.50579 0.47983,2.18923 0.86786,1.72519 2.8868,2.5386 6.62768,2.63908 0.85404,0.0229 2.9456,-0.0365 3.68871,-0.09 3.3798,-0.24328 4.84817,-1.38184 5.15819,-4.04859 0.1646,-1.41584 -0.21295,-2.43655 -1.19958,-3.4188 -0.4759,-0.47379 -0.93555,-0.72181 -1.61943,-0.8697 -0.49532,-0.10712 -1.82666,-0.10472 -3.23887,0 -1.16676,0.087 -2.50538,0.0991 -3.47878,0.03 -1.06947,-0.0759 -1.85559,-0.12384 -2.45914,-0.11995 z"
      style="fill:#f2c8b0" />
</svg>
