<?xml version="1.0" encoding="UTF-8" standalone="no"?>
<!-- Created with Inkscape (http://www.inkscape.org/) -->

<svg
   xmlns:dc="http://purl.org/dc/elements/1.1/"
   xmlns:cc="http://creativecommons.org/ns#"
   xmlns:rdf="http://www.w3.org/1999/02/22-rdf-syntax-ns#"
   xmlns:svg="http://www.w3.org/2000/svg"
   xmlns="http://www.w3.org/2000/svg"
   version="1.1"
   width="32"
   height="32">
  <g transform="translate(-358.32751,-517.03473)">
    <rect
        width="32"
        height="32"
        x="358.32751"
        y="517.03473"
        style="fill:#9ad8ee;fill-opacity:1;fill-rule:nonzero;stroke:none" />
    <path
        d="m 366.3511,523.63362 c -0.17316,0.01 -0.23991,0.06 -0.23991,0.06 -0.86969,2.20168 -0.34485,3.79413 -0.17994,4.19853 -1.02281,1.11802 -1.64942,2.54324 -1.64942,4.2885 0,6.12707 3.73707,7.5138 7.28745,7.91723 -0.45742,0.3995 -0.84438,1.09564 -0.98966,2.12925 -0.91091,0.40835 -3.25211,1.12362 -4.67836,-1.31954 0,0 -0.85425,-1.53557 -2.45914,-1.64942 0,0 -1.54174,-0.0327 -0.09,0.95966 0,0 1.04203,0.52283 1.76938,2.36917 0,0 0.95055,3.09515 5.39811,2.12926 0.005,0.86 -0.0216,2.63563 -0.03,4.31849 l 7.97721,0 0,-5.9979 c 0,-1.492 -0.50537,-2.47522 -1.07962,-2.96896 3.56216,-0.39558 7.31743,-1.74448 7.31743,-7.88724 0,-1.74526 -0.62465,-3.17048 -1.64943,-4.2885 0.16492,-0.4044 0.6927,-1.99685 -0.17993,-4.19853 0,0 -1.32573,-0.44975 -4.37846,1.61943 -1.27702,-0.35434 -2.63106,-0.53381 -3.9886,-0.53981 -1.3595,0.006 -2.7435,0.18547 -4.0186,0.53981 -2.29101,-1.55187 -3.61907,-1.70886 -4.13855,-1.67941 z"
        style="fill:#222121;fill-opacity:1;fill-rule:nonzero;stroke:none" />
    <path
        d="m 364.4094,539.99611 c -0.10556,0.0335 -0.11888,0.15095 -0.03,0.23991 0.0947,0.0947 0.28273,0.0607 0.2999,-0.06 0.0176,-0.1236 -0.13039,-0.22421 -0.26991,-0.17993 z m 0.62978,0.41985 c -0.15987,0.0186 -0.1959,0.16396 -0.06,0.2999 0.13077,0.13075 0.30874,0.11935 0.32989,-0.03 0.0216,-0.15206 -0.11816,-0.28759 -0.26991,-0.26991 z m 0.62978,0.59979 c -0.0414,-0.006 -0.0692,0.01 -0.11996,0.06 -0.1076,0.1076 -0.10448,0.25546 0.03,0.38986 0.13289,0.13289 0.14395,0.12735 0.26991,0.06 0.12814,-0.0686 0.11096,-0.2489 -0.03,-0.38986 -0.0684,-0.0684 -0.10856,-0.11384 -0.14995,-0.11996 z m 0.62978,0.80972 c -0.0521,-0.007 -0.10856,0.0257 -0.14995,0.06 -0.0986,0.0818 -0.0884,0.17945 0.03,0.32988 0.13206,0.16789 0.39548,0.17192 0.41986,0 0.0254,-0.17874 -0.14359,-0.3688 -0.2999,-0.38986 z m 0.80972,0.71975 c -0.0557,-0.006 -0.13019,0.004 -0.17994,0.03 -0.22985,0.12303 0.005,0.44439 0.29989,0.41986 0.14277,-0.012 0.16718,-0.0297 0.17994,-0.11996 0.0224,-0.15906 -0.13291,-0.31208 -0.29989,-0.32988 z m 2.99895,0.11995 c -0.22726,0.0595 -0.20182,0.38987 0.03,0.38987 0.0946,0 0.12345,-0.008 0.14994,-0.14995 0.0355,-0.18949 -0.0247,-0.28047 -0.17993,-0.23992 z m -2.0093,0.20993 c -0.0596,0 -0.15692,0.0371 -0.20993,0.09 -0.0777,0.0777 -0.0718,0.13187 -0.03,0.20993 0.0926,0.17302 0.29024,0.20172 0.44985,0.09 0.0582,-0.0408 0.11995,-0.10052 0.11995,-0.14994 0,-0.10977 -0.18238,-0.23992 -0.32988,-0.23992 z m 1.10961,0.03 c -0.22157,0 -0.34532,0.15898 -0.2699,0.29989 0.0872,0.16291 0.30777,0.18047 0.47983,0.06 0.20939,-0.14665 0.0747,-0.35987 -0.20993,-0.35987 z"
        style="fill:#9ad8ee" />
    <g transform="matrix(1.1995801,0,0,-1.1995801,578.18918,1016.4372)">
      <path
          d="m -173.30971,404.49701 c -0.50314,-0.003 -0.85248,-0.0542 -1.125,-0.125 -0.49527,-0.12868 -0.78615,-0.3094 -1.2,-0.725 -0.43687,-0.43868 -0.68444,-0.82628 -0.85,-1.325 -0.0944,-0.28428 -0.12406,-0.38472 -0.125,-0.9 -0.001,-0.75852 0.11337,-1.25527 0.4,-1.825 0.72347,-1.43816 2.40651,-2.11624 5.525,-2.2 0.71195,-0.0191 2.45553,0.0304 3.075,0.075 2.81749,0.2028 4.04156,1.15193 4.3,3.375 0.13721,1.18028 -0.17752,2.03117 -1,2.85 -0.39672,0.39496 -0.7799,0.60172 -1.35,0.725 -0.41291,0.0893 -1.52275,0.0873 -2.7,0 -0.97264,-0.0725 -2.08855,-0.0826 -2.9,-0.025 -0.89154,0.0633 -1.54687,0.10324 -2.05,0.1 z"
          style="fill:#f2c8b0" />
      <path
          d="m -173.5252,403.2225 c -0.32334,0.0319 -0.66163,-0.12153 -0.92499,-0.4 -0.84918,-0.89788 -0.73789,-2.71437 0.22499,-3.4 0.27252,-0.19404 0.68448,-0.22558 1.02501,-0.075 0.37443,0.16563 0.71956,0.67158 0.84999,1.225 0.0767,0.32555 0.0756,0.97834 0,1.3 -0.12862,0.54553 -0.48727,1.0623 -0.875,1.25 -0.10016,0.0485 -0.19221,0.0894 -0.3,0.1 z"
          style="fill:#ffffff;fill-opacity:1;fill-rule:nonzero;stroke:none" />
      <path
          d="m -166.45019,403.1975 c -0.34636,-0.0702 -0.67262,-0.33812 -0.90001,-0.8 -0.19839,-0.403 -0.24647,-0.71956 -0.22499,-1.275 0.022,-0.56786 0.11328,-0.89553 0.34999,-1.25 0.38085,-0.57033 0.89955,-0.77199 1.425,-0.525 0.73801,0.3469 1.14398,1.64069 0.825,2.675 -0.2686,0.87099 -0.89774,1.29206 -1.47499,1.175 z"
          style="fill:#ffffff;fill-opacity:1;fill-rule:nonzero;stroke:none" />
      <path
          d="m -173.5502,402.5725 c 0.2446,0 0.35033,-0.0446 0.55,-0.225 0.30969,-0.27976 0.45976,-0.74008 0.42501,-1.275 -0.0359,-0.55268 -0.26,-0.96811 -0.625,-1.15 -0.21965,-0.10945 -0.32062,-0.10944 -0.52501,-0.05 -0.20279,0.059 -0.46008,0.29079 -0.59999,0.575 -0.11585,0.23531 -0.11162,0.31342 -0.125,0.675 -0.0114,0.30839 -0.002,0.46386 0.05,0.625 0.16385,0.50678 0.48797,0.825 0.85,0.825 z"
          style="fill:#ffffff;fill-opacity:1;fill-rule:nonzero;stroke:none" />
      <path
          d="m -166.4002,402.5725 c 0.2528,0 0.43164,-0.0803 0.625,-0.3 0.58272,-0.66199 0.43339,-1.997 -0.275,-2.35 -0.22852,-0.11387 -0.35215,-0.10437 -0.575,-0.025 -0.4787,0.17062 -0.80482,0.89937 -0.69999,1.575 0.10311,0.66451 0.46762,1.1 0.92499,1.1 z"
          style="fill:#ffffff;fill-opacity:1;fill-rule:nonzero;stroke:none" />
      <path
          d="m -173.9002,402.0225 c -0.13284,0 -0.2,-0.0884 -0.2,-0.225 0,-0.0943 0.11948,-0.225 0.2,-0.225 0.0121,0 0.0515,0.041 0.1,0.075 0.0972,0.0681 0.129,0.24602 0.05,0.325 -0.0262,0.0262 -0.0932,0.05 -0.15,0.05 z"
          style="fill:#ffffff;fill-opacity:1;fill-rule:nonzero;stroke:none" />
      <path
          d="m -166.7252,401.9725 c -0.10601,-0.0614 -0.16615,-0.25735 -0.05,-0.325 0.0889,-0.0518 0.13116,-0.05 0.225,0 0.12464,0.0667 0.092,0.27275 -0.05,0.325 -0.0422,0.0155 -0.0897,0.0205 -0.125,0 z"
          style="fill:#ffffff;fill-opacity:1;fill-rule:nonzero;stroke:none" />
      <path
          d="m -173.5502,402.5725 c -0.36203,0 -0.68615,-0.31822 -0.85,-0.825 -0.0525,-0.16114 -0.0614,-0.31661 -0.05,-0.625 0.0134,-0.36158 0.009,-0.43969 0.125,-0.675 0.13991,-0.28421 0.3972,-0.516 0.59999,-0.575 0.20439,-0.0594 0.30536,-0.0594 0.52501,0.05 0.365,0.18189 0.5891,0.59732 0.625,1.15 0.0347,0.53492 -0.11532,0.99524 -0.42501,1.275 -0.19967,0.18043 -0.3054,0.225 -0.55,0.225 z m 7.15,0 c -0.45737,0 -0.82188,-0.43549 -0.92499,-1.1 -0.10483,-0.67563 0.22129,-1.40438 0.69999,-1.575 0.22285,-0.0794 0.34648,-0.0889 0.575,0.025 0.70839,0.353 0.85772,1.68801 0.275,2.35 -0.19336,0.21971 -0.3722,0.3 -0.625,0.3 z m -7.5,-0.55 c 0.0568,0 0.12381,-0.0238 0.15,-0.05 0.079,-0.079 0.0472,-0.2569 -0.05,-0.325 -0.0485,-0.034 -0.0879,-0.075 -0.1,-0.075 -0.0805,0 -0.2,0.1307 -0.2,0.225 0,0.13662 0.0671,0.225 0.2,0.225 z m 7.175,-0.05 c 0.0354,0.0205 0.0828,0.0155 0.125,0 0.142,-0.0522 0.17464,-0.2583 0.05,-0.325 -0.0938,-0.05 -0.13609,-0.0518 -0.225,0 -0.11615,0.0677 -0.056,0.26368 0.05,0.325 z"
          style="fill:#a96054;fill-opacity:1;fill-rule:nonzero;stroke:none" />
      <path
          d="m -173.9,402.02625 c -0.1329,0 -0.2,-0.0884 -0.2,-0.225 0,-0.0943 0.1195,-0.225 0.2,-0.225 0.0121,0 0.0515,0.041 0.1,0.075 0.0972,0.0681 0.129,0.246 0.05,0.325 -0.0262,0.0262 -0.0932,0.05 -0.15,0.05 z m 7.175,-0.05 c -0.106,-0.0613 -0.16615,-0.2573 -0.05,-0.325 0.0889,-0.0518 0.1312,-0.05 0.225,0 0.12464,0.0667 0.092,0.2728 -0.05,0.325 -0.0422,0.0155 -0.0896,0.0205 -0.125,0 z"
          style="fill:#ffffff;fill-opacity:1;fill-rule:nonzero;stroke:none" />
      <path
          d="m -170,399.836 c -0.30905,0 -0.44814,-0.35186 -0.225,-0.575 0.14395,-0.14398 0.2649,-0.13471 0.425,0 0.24105,0.20283 0.11531,0.575 -0.2,0.575 z"
          style="fill:#a96054" />
      <path
          d="m -170.7,398.761 c -0.0474,0.0115 -0.0814,-0.0264 -0.1,-0.075 -0.0472,-0.12297 0.20453,-0.42259 0.45,-0.55 0.16854,-0.0874 0.54228,-0.069 0.725,0.025 0.17999,0.0926 0.3431,0.24932 0.4,0.4 0.0872,0.23091 -0.10665,0.27236 -0.25,0.05 -0.13307,-0.20641 -0.40891,-0.3615 -0.625,-0.325 -0.18166,0.0307 -0.3618,0.17942 -0.45,0.35 -0.0315,0.0608 -0.10255,0.11345 -0.15,0.125 z"
          style="fill:#a96054" />
    </g>
    <path
        d="m 374.21935,541.95344 c -0.037,0.0117 -0.0576,0.0408 -0.0899,0.0899 -0.0649,0.099 -0.0743,0.64399 -0.06,2.5791 -0.001,1.4075 4.9e-4,2.86265 0,4.40845 l 0.53981,0 c -0.001,-1.44869 0.002,-3.21602 0,-4.40845 0.01,-2.2306 3.6e-4,-2.64564 -0.23991,-2.66907 -0.0596,-0.006 -0.11295,-0.0117 -0.14995,0 z m -2.03928,0.47983 c -0.10505,0.0589 -0.23672,0.26233 -0.32989,0.53981 -0.075,0.2232 -0.10571,0.64084 -0.11996,1.64943 -0.0488,1.42863 -0.002,2.94574 -0.0299,4.40845 l 0.62978,0 c 0,-1.494 4e-5,-3.08056 0,-4.40845 9.6e-4,-1.62398 -0.002,-2.16664 -0.06,-2.18924 -0.0286,-0.0109 -0.055,-0.0197 -0.0899,0 z m 4.28849,0.06 c -0.0761,0 -0.10685,0.41914 -0.11995,2.12926 8.2e-4,1.42007 -8.2e-4,2.81018 0,4.40845 l 0.62978,0 c -0.009,-1.55217 0.0214,-2.84638 -0.0299,-4.40845 -0.0144,-0.62481 -0.0233,-1.03578 -0.06,-1.22957 -0.0872,-0.46008 -0.28615,-0.89969 -0.41986,-0.89969 z"
        style="fill:#9ad8ee;fill-opacity:1;fill-rule:nonzero;stroke:none" />
  </g>
</svg>
