<?xml version="1.0" encoding="UTF-8" standalone="no"?>
<!-- Created with Inkscape (http://www.inkscape.org/) -->

<svg
   xmlns:dc="http://purl.org/dc/elements/1.1/"
   xmlns:cc="http://creativecommons.org/ns#"
   xmlns:rdf="http://www.w3.org/1999/02/22-rdf-syntax-ns#"
   xmlns:svg="http://www.w3.org/2000/svg"
   xmlns="http://www.w3.org/2000/svg"
   version="1.1"
   width="32"
   height="32">
  <path
      d="m 0,0 0,32 12.15625,0 c 0.0084,-1.68286 0.03625,-3.4525 0.03125,-4.3125 -4.44756,0.96589 -5.40625,-2.125 -5.40625,-2.125 -0.72735,-1.84634 -1.75,-2.375 -1.75,-2.375 C 3.57951,22.19514 5.125,22.21875 5.125,22.21875 6.72989,22.3326 7.5625,23.875 7.5625,23.875 c 1.42625,2.44316 3.77659,1.72085 4.6875,1.3125 0.14528,-1.03361 0.54258,-1.7255 1,-2.125 -3.55038,-0.40343 -7.28125,-1.77918 -7.28125,-7.90625 0,-1.74526 0.60219,-3.19448 1.625,-4.3125 -0.16491,-0.4044 -0.68219,-1.98582 0.1875,-4.1875 0,0 0.07684,-0.0525 0.25,-0.0625 0.51948,-0.02945 1.83399,0.13563 4.125,1.6875 C 13.43135,7.92691 14.828,7.756 16.1875,7.75 c 1.35754,0.006 2.69173,0.17691 3.96875,0.53125 3.05273,-2.06918 4.40625,-1.625 4.40625,-1.625 0.87263,2.20168 0.32117,3.7831 0.15625,4.1875 1.02478,1.11802 1.65625,2.56724 1.65625,4.3125 0,6.14276 -3.75034,7.47942 -7.3125,7.875 C 19.63675,23.52499 20.125,24.508 20.125,26 l 0,6 L 32,32 32,0 0,0 z"
      style="fill:#222222;fill-opacity:1;fill-rule:nonzero;stroke:none" />
</svg>
