<?xml version="1.0" encoding="UTF-8" standalone="no"?>
<!-- Created with Inkscape (http://www.inkscape.org/) -->

<svg
   xmlns:dc="http://purl.org/dc/elements/1.1/"
   xmlns:cc="http://creativecommons.org/ns#"
   xmlns:rdf="http://www.w3.org/1999/02/22-rdf-syntax-ns#"
   xmlns:svg="http://www.w3.org/2000/svg"
   xmlns="http://www.w3.org/2000/svg"
   version="1.1"
   width="32"
   height="32">
  <g transform="matrix(1.25,0,0,-1.25,-349.80564,152.0492)">
    <path
        d="M 0,0 0,32 32,32 32,0 0,0 z m 6,7.5 20,0 C 22.666362,9.9425625 19.337938,12.375825 16,14.8125 12.664987,12.372962 9.3324,9.943125 6,7.5 z m 0.90625,4.34375 c 3.26055,2.377512 6.3369,4.6127 9.1875,6.6875 3.309838,-2.41605 5.944925,-4.383025 8.84375,-6.5 l 0,12.46875 -18.03125,0 0,-12.65625 z"
       transform="matrix(0.8,0,0,-0.8,279.84451,121.63936)"
       style="fill:#222222;fill-opacity:1;fill-rule:nonzero;stroke:none" />
  </g>
</svg>
