<?xml version="1.0" encoding="UTF-8" standalone="no"?>
<!-- Created with Inkscape (http://www.inkscape.org/) -->

<svg
   xmlns:dc="http://purl.org/dc/elements/1.1/"
   xmlns:cc="http://creativecommons.org/ns#"
   xmlns:rdf="http://www.w3.org/1999/02/22-rdf-syntax-ns#"
   xmlns:svg="http://www.w3.org/2000/svg"
   xmlns="http://www.w3.org/2000/svg"
   xmlns:xlink="http://www.w3.org/1999/xlink"
   version="1.1"
   width="32"
   height="32">
  <path
      d="M 0,0 0,32 32,32 32,0 0,0 z m 13.34375,5.34375 c 0.183818,-0.017136 0.376675,0 0.5625,0 l 6.625,0 -1.5,1.0625 -2.09375,0 c 1.39477,0.53647 2.15625,2.17559 2.15625,3.84375 0,1.4016 -0.77814,2.58057 -1.875,3.4375 -1.07012,0.83608 -1.28125,1.19538 -1.28125,1.90625 0,0.60663 1.15067,1.63809 1.75,2.0625 C 19.43959,18.89537 20,20.04802 20,21.96875 20,24.36435 17.66731,26.75 13.46875,26.75 9.78589,26.75 6.6875,25.23913 6.6875,22.84375 c 0,-2.43224 2.84846,-4.78125 6.53125,-4.78125 l 1.125,0 c -0.50406,-0.49032 -0.875,-1.10277 -0.875,-1.84375 0,-0.43952 0.11618,-0.84288 0.3125,-1.21875 -0.20012,0.0146 -0.38346,0 -0.59375,0 -3.0249,0 -5.0625,-2.14624 -5.0625,-4.8125 0,-2.4462375 2.461475,-4.5867175 5.21875,-4.84375 z M 13.0625,6.28125 C 11.35404,6.23016 10.20508,7.94357 10.5,10.1875 c 0.29498,2.24354 1.91616,4.10525 3.625,4.15625 1.70806,0.05109 2.85718,-1.72483 2.5625,-3.96875 C 16.39243,8.1313 14.77064,6.33265 13.0625,6.28125 z M 23.25,11.75 l 1.46875,0 0,2.84375 2.90625,0 0,1.5 -2.90625,0 0,2.90625 -1.46875,0 0,-2.90625 -2.90625,0 0,-1.5 2.90625,0 0,-2.84375 z m -9.34375,6.9375 c -2.54555,-0.02746 -4.8125,1.57158 -4.8125,3.46875 0,1.93563 1.82947,3.53125 4.375,3.53125 3.5787,0 4.8125,-1.50188 4.8125,-3.4375 0,-0.23342 -0.0099,-0.4654 -0.0625,-0.6875 -0.27964,-1.09511 -1.2745,-1.63274 -2.65625,-2.59375 -0.50263,-0.16261 -1.06225,-0.27525 -1.65625,-0.28125 z"
      style="fill:#222222;fill-opacity:1;fill-rule:evenodd;stroke:none" />
</svg>
