<?xml version="1.0" encoding="UTF-8" standalone="no"?>
<!-- Created with Inkscape (http://www.inkscape.org/) -->

<svg
   xmlns:dc="http://purl.org/dc/elements/1.1/"
   xmlns:cc="http://creativecommons.org/ns#"
   xmlns:rdf="http://www.w3.org/1999/02/22-rdf-syntax-ns#"
   xmlns:svg="http://www.w3.org/2000/svg"
   xmlns="http://www.w3.org/2000/svg"
   version="1.1"
   width="32"
   height="32">
  <rect
      width="32"
      height="32"
      x="0"
      y="0"
      style="fill:#484848;fill-opacity:1;stroke:none" />
  <path
      d="m 18.075675,16 a 2.0756755,2.0756755 0 1 1 -4.151351,0 2.0756755,2.0756755 0 1 1 4.151351,0 z"
      style="fill:#ffd34e;fill-opacity:1;stroke:none" />
  <path
      d="M 28.210335,16 A 12.210336,4.8662898 0 1 1 3.7896632,16 12.210336,4.8662898 0 1 1 28.210335,16 z"
      style="fill:none;stroke:#e5e2d5;stroke-width:1.43660939;stroke-miterlimit:4;stroke-opacity:1;stroke-dasharray:none" />
  <path
      d="M 22.105167,26.574461 A 12.210336,4.8662898 60 1 1 9.8948313,5.4255392 12.210336,4.8662898 60 1 1 22.105167,26.574461 z"
      style="fill:none;stroke:#e5e2d5;stroke-width:1.43660939;stroke-miterlimit:4;stroke-opacity:1;stroke-dasharray:none" />
  <path
      d="M 9.8948289,26.574461 A 4.8662898,12.210336 30 1 1 22.105165,5.4255385 4.8662898,12.210336 30 1 1 9.8948289,26.574461 z"
      style="fill:none;stroke:#e5e2d5;stroke-width:1.43660939;stroke-miterlimit:4;stroke-opacity:1;stroke-dasharray:none" />
</svg>
