<?xml version="1.0" encoding="UTF-8" standalone="no"?>
<!-- Created with Inkscape (http://www.inkscape.org/) -->

<svg
   xmlns:dc="http://purl.org/dc/elements/1.1/"
   xmlns:cc="http://creativecommons.org/ns#"
   xmlns:rdf="http://www.w3.org/1999/02/22-rdf-syntax-ns#"
   xmlns:svg="http://www.w3.org/2000/svg"
   xmlns="http://www.w3.org/2000/svg"
   version="1.1"
   width="32"
   height="32">
  <path
      d="m 0,32.00001 32,0 L 32,0 0,0 0,32.00001 z"
      style="fill:#d84937;fill-opacity:1;fill-rule:evenodd;stroke:none" />
  <path
      d="M 7.0625,2.25 C 4.4114817,2.25 1.8684152,3.3157585 0,4.9375 L 0,17 c 1.4906082,1.238676 3.5007951,2 5.84375,2 0.3636811,0 0.7164253,-0.0063 1.0625,-0.03125 -0.3395057,0.650037 -0.59375,1.364907 -0.59375,2.125 0,1.281418 0.6907819,2.33957 1.5625,3.1875 -0.6585933,0 -1.3061692,0 -2,0 -2.1837348,0 -4.1746291,0.516204 -5.875,1.3125 L 0,28.25 c 1.5060449,-1.741844 4.1950531,-2.906265 7.09375,-2.875 1.027255,0.01091 2.0057569,0.156269 2.875,0.4375 2.389554,1.661936 4.078913,2.60612 4.5625,4.5 0.09099,0.384062 0.15625,0.783844 0.15625,1.1875 0,0.167475 -0.02022,0.336423 -0.03125,0.5 l 2.90625,0 c 0.04843,-0.320899 0.0625,-0.645626 0.0625,-0.96875 0,-3.321634 -0.969997,-5.325846 -4,-7.46875 C 12.588514,22.828557 10.59375,21.049099 10.59375,20 c 0,-1.229349 0.368133,-1.835351 2.21875,-3.28125 1.896892,-1.481949 3.21875,-3.544865 3.21875,-5.96875 0,-2.8848531 -1.275446,-5.6972574 -3.6875,-6.625 l 3.625,0 2.59375,-1.875 -11.5,0 z M 5.65625,3.875 c 2.953997,0.088762 5.739713,3.2135664 6.25,7.09375 0.509618,3.880559 -1.452371,6.963356 -4.40625,6.875 C 4.544797,17.7554 1.7288995,14.536152 1.21875,10.65625 0.70873201,6.7756786 2.7016965,3.7866501 5.65625,3.875 z"
      style="fill:#f9f9f9;fill-opacity:1;stroke:none" />
  <path
      d="m 31.57811,7.47136 -4.99527,0 0,-4.9561 -2.53853,0 0,4.9561 -5.04512,0 0,2.56824 5.04512,0 0,5.04512 2.53853,0 0,-5.04827 4.99527,0 0,-2.56509 z"
      style="fill:#f9f9f9;fill-opacity:1;stroke:none" />
</svg>
