<?xml version="1.0" encoding="UTF-8" standalone="no"?>
<!-- Created with Inkscape (http://www.inkscape.org/) -->

<svg
   xmlns:dc="http://purl.org/dc/elements/1.1/"
   xmlns:cc="http://creativecommons.org/ns#"
   xmlns:rdf="http://www.w3.org/1999/02/22-rdf-syntax-ns#"
   xmlns:svg="http://www.w3.org/2000/svg"
   xmlns="http://www.w3.org/2000/svg"
   xmlns:xlink="http://www.w3.org/1999/xlink"
   version="1.1"
   width="32"
   height="32">
  <path
      d="m 0,32.00001 32,0 L 32,0 0,0 0,32.00001 z"
      style="fill:#d84937;fill-opacity:1;fill-rule:evenodd;stroke:none" />
  <path
      d="m 17.68103,17.65952 c -0.59933,-0.42441 -1.7457,-1.45635 -1.7457,-2.06298 0,-0.71087 0.20284,-1.06107 1.27296,-1.89715 1.09686,-0.85693 1.87297,-2.06169 1.87297,-3.46329 0,-1.66816 -0.74302,-3.29434 -2.13779,-3.83081 l 2.10274,0 1.48417,-1.07284 c 0,0 -4.97406,0 -6.6321,0 -2.9732,0 -5.77153,2.25259 -5.77153,4.86191 0,2.66626 2.02678,4.81835 5.05168,4.81835 0.21029,0 0.41474,-0.004 0.61486,-0.0186 -0.19632,0.37587 -0.33674,0.79913 -0.33674,1.23865 0,0.74098 0.3987,1.34192 0.90276,1.83224 -0.38083,0 -0.74857,0.0109 -1.14977,0.0109 -3.68279,0 -6.51738,2.34558 -6.51738,4.77782 0,2.39538 3.10745,3.89384 6.79031,3.89384 4.19856,0 6.51753,-2.38222 6.51753,-4.77782 0,-1.92073 -0.56688,-3.07112 -2.31897,-4.31024 z m -3.54295,-3.32286 0,0 c -1.70884,-0.051 -3.3326,-1.91145 -3.62758,-4.15499 -0.29492,-2.24393 0.85076,-3.96143 2.55922,-3.91034 1.70814,0.0514 3.33258,1.8517 3.62765,4.0954 0.29468,2.24392 -0.85123,4.02102 -2.55929,3.96993 z m -0.66907,11.35199 0,0 c -2.54553,0 -4.38399,-1.61143 -4.38399,-3.54706 0,-1.89717 2.28034,-3.47629 4.82589,-3.44883 0.594,0.006 1.14765,0.10196 1.65028,0.26457 1.38175,0.96101 2.37301,1.50401 2.65265,2.59912 0.0526,0.2221 0.0812,0.45048 0.0812,0.6839 0,1.93562 -1.24733,3.44829 -4.82603,3.44829"
      style="fill:#f9f9f9;fill-opacity:1;stroke:none" />
  <path
      d="m 27.62122,14.6012 -2.88849,0 0,-2.86585 -1.4679,0 0,2.86585 -2.91732,0 0,1.48507 2.91732,0 0,2.91732 1.4679,0 0,-2.91914 2.88849,0 0,-1.48326 z"
      style="fill:#f9f9f9;fill-opacity:1;stroke:none" />
</svg>
