<?xml version="1.0" encoding="UTF-8" standalone="no"?>
<!-- Created with Inkscape (http://www.inkscape.org/) -->

<svg
   xmlns:dc="http://purl.org/dc/elements/1.1/"
   xmlns:cc="http://creativecommons.org/ns#"
   xmlns:rdf="http://www.w3.org/1999/02/22-rdf-syntax-ns#"
   xmlns:svg="http://www.w3.org/2000/svg"
   xmlns="http://www.w3.org/2000/svg"
   version="1.1"
   width="32"
   height="32">
  <path
      d="M 0,0 0,32 32,32 32,0 0,0 z m 10.875,4.4375 c 0.462332,-0.025887 0.937866,0.046951 1.40625,0.1875 0.936767,0.2810982 1.896135,0.8527485 2.875,1.625 C 15.442601,6.4759098 15.711549,6.7060654 16,6.96875 16.279515,6.7159434 16.566421,6.4687919 16.84375,6.25 c 0.978865,-0.7722515 1.938233,-1.3439018 2.875,-1.625 0.468384,-0.1405491 0.943918,-0.2133868 1.40625,-0.1875 0.462332,0.025887 0.902749,0.16968 1.3125,0.40625 0.819502,0.4731401 1.337555,1.2981869 1.5625,2.25 0.224945,0.9518131 0.210607,2.0474023 0.03125,3.28125 -0.05256,0.361593 -0.135496,0.742316 -0.21875,1.125 0.36733,0.117357 0.727371,0.210188 1.0625,0.34375 1.158221,0.461596 2.131928,1.016785 2.84375,1.6875 0.711822,0.670715 1.1875,1.522469 1.1875,2.46875 0,0.94628 -0.475678,1.798035 -1.1875,2.46875 -0.711822,0.670715 -1.685529,1.194654 -2.84375,1.65625 -0.335129,0.133562 -0.69517,0.257642 -1.0625,0.375 0.08329,0.383006 0.16631,0.76425 0.21875,1.125 0.179358,1.233847 0.193695,2.329437 -0.03125,3.28125 -0.224945,0.951813 -0.742998,1.77686 -1.5625,2.25 -0.819503,0.47314 -1.781983,0.499848 -2.71875,0.21875 -0.936767,-0.281098 -1.896135,-0.852749 -2.875,-1.625 C 16.561634,25.527431 16.284172,25.289529 16,25.03125 c -0.279515,0.252807 -0.566421,0.499958 -0.84375,0.71875 -0.978864,0.772252 -1.938233,1.343902 -2.875,1.625 C 11.344483,27.656099 10.382003,27.629391 9.5625,27.15625 8.7429973,26.68311 8.2561952,25.858063 8.03125,24.90625 7.8063052,23.954437 7.7893928,22.858847 7.96875,21.625 8.0214117,21.262725 8.1021388,20.882622 8.1875,20.5 7.8201702,20.382642 7.4601285,20.258562 7.125,20.125 5.9667782,19.663404 4.9930717,19.139465 4.28125,18.46875 3.5694283,17.798035 3.09375,16.94628 3.09375,16 c 0,-0.946281 0.4756783,-1.798035 1.1875,-2.46875 C 4.9930717,12.860535 5.9667782,12.305346 7.125,11.84375 7.4601285,11.710188 7.8201702,11.617357 8.1875,11.5 8.1022839,11.117133 8.0214117,10.737275 7.96875,10.375 7.7893928,9.1411528 7.8063047,8.0455631 8.03125,7.09375 8.2561952,6.1419369 8.7429973,5.3168901 9.5625,4.84375 9.9722514,4.6071799 10.412668,4.4633867 10.875,4.4375 z m 0,1.40625 C 10.626347,5.854579 10.422126,5.931873 10.25,6.03125 9.905747,6.2300044 9.6030693,6.6119244 9.4375,7.3125 c -0.1655694,0.7005756 -0.1628173,1.6611845 0,2.78125 0.046612,0.320657 0.081743,0.654365 0.15625,1 1.004842,-0.239717 2.099006,-0.443162 3.25,-0.5625 0.67766,-0.9242481 1.387612,-1.7556293 2.09375,-2.5 C 14.677479,7.7947163 14.441313,7.5439896 14.1875,7.34375 13.298903,6.6427131 12.439501,6.1756505 11.75,5.96875 11.40525,5.8652997 11.123653,5.8329207 10.875,5.84375 z m 10.25,0 C 20.876347,5.832921 20.59475,5.8653 20.25,5.96875 19.560499,6.1756505 18.732347,6.6739631 17.84375,7.375 17.59062,7.5747008 17.322236,7.7960975 17.0625,8.03125 c 0.705316,0.7466964 1.415862,1.5763977 2.09375,2.5 1.136685,0.117854 2.224329,0.295891 3.21875,0.53125 0.07421,-0.33747 0.141883,-0.654937 0.1875,-0.96875 0.16282,-1.120066 0.165569,-2.0806744 0,-2.78125 C 22.39693,6.6119244 22.094253,6.2300044 21.75,6.03125 21.577874,5.931873 21.373653,5.8545793 21.125,5.84375 z M 16,9.09375 C 15.616907,9.5000468 15.222352,9.9390675 14.84375,10.40625 15.223041,10.392534 15.611876,10.375 16,10.375 c 0.377641,0 0.755704,0.01826 1.125,0.03125 C 16.747148,9.9398269 16.37992,9.5001763 16,9.09375 z m 0,2.78125 c -0.793278,0 -1.563252,0.03458 -2.3125,0.09375 -0.430999,0.621277 -0.847625,1.271815 -1.25,1.96875 -0.400748,0.694116 -0.76802,1.376587 -1.09375,2.0625 0.32314,0.677816 0.697493,1.376164 1.09375,2.0625 0.402375,0.696935 0.818562,1.348142 1.25,1.96875 0.749248,0.05917 1.519222,0.09375 2.3125,0.09375 0.782442,0 1.541537,-0.03614 2.28125,-0.09375 0.433809,-0.623411 0.876653,-1.267967 1.28125,-1.96875 C 19.963248,17.368384 20.33052,16.685913 20.65625,16 20.330297,15.314697 19.963248,14.631617 19.5625,13.9375 19.161251,13.242517 18.744418,12.589686 18.3125,11.96875 17.563252,11.909578 16.793278,11.875 16,11.875 z m -4.28125,0.3125 C 11.111987,12.2808 10.550898,12.402526 10,12.53125 c 0.161127,0.536208 0.34349,1.092652 0.5625,1.65625 0.175626,-0.331563 0.370801,-0.667967 0.5625,-1 0.195877,-0.339268 0.389727,-0.676641 0.59375,-1 z m 8.5625,0 c 0.204089,0.323173 0.397873,0.660732 0.59375,1 0.196081,0.339623 0.351806,0.692443 0.53125,1.03125 C 21.632799,13.636756 21.831153,13.083057 22,12.53125 21.449102,12.402526 20.888013,12.2808 20.28125,12.1875 z M 8.5625,12.9375 C 8.2298838,13.043848 7.8922399,13.13104 7.59375,13.25 6.5423358,13.669029 5.7114316,14.162575 5.1875,14.65625 4.6635684,15.149925 4.46875,15.602491 4.46875,16 c 0,0.397508 0.1948184,0.818825 0.71875,1.3125 0.5239316,0.493676 1.3548358,0.987221 2.40625,1.40625 0.2984899,0.11896 0.6361338,0.237402 0.96875,0.34375 C 8.8630847,18.079578 9.2510927,17.049429 9.71875,16 9.2498769,14.952626 8.8627552,13.920979 8.5625,12.9375 z m 14.875,0 c -0.292895,0.983872 -0.658837,2.015192 -1.125,3.0625 0.465535,1.042629 0.831867,2.076895 1.125,3.0625 0.332616,-0.106348 0.67026,-0.22479 0.96875,-0.34375 1.051415,-0.419029 1.882318,-0.912574 2.40625,-1.40625 0.523932,-0.493675 0.71875,-0.914992 0.71875,-1.3125 0,-0.397509 -0.194818,-0.850075 -0.71875,-1.34375 C 26.288568,14.162575 25.457665,13.669029 24.40625,13.25 24.10776,13.13104 23.770116,13.043848 23.4375,12.9375 z m -7.4375,1 c 1.146364,0 2.0625,0.916136 2.0625,2.0625 0,1.146364 -0.916136,2.0625 -2.0625,2.0625 -1.146364,0 -2.0625,-0.916136 -2.0625,-2.0625 0,-1.146364 0.916136,-2.0625 2.0625,-2.0625 z m -5.40625,3.84375 c -0.226549,0.581994 -0.424903,1.135693 -0.59375,1.6875 0.550898,0.128724 1.111987,0.25045 1.71875,0.34375 -0.204175,-0.325071 -0.397119,-0.659426 -0.59375,-1 -0.196081,-0.339623 -0.351806,-0.692443 -0.53125,-1.03125 z M 21.4375,17.8125 c -0.175627,0.331563 -0.370801,0.667967 -0.5625,1 -0.195877,0.339268 -0.389727,0.676641 -0.59375,1 C 20.888013,19.7192 21.449102,19.597474 22,19.46875 21.838821,18.932348 21.656167,18.37551 21.4375,17.8125 z M 9.625,20.90625 c -0.077076,0.347478 -0.1406136,0.677455 -0.1875,1 -0.1628173,1.120066 -0.1655693,2.080674 0,2.78125 0.1655694,0.700575 0.4682478,1.082501 0.8125,1.28125 0.344253,0.19876 0.810499,0.2694 1.5,0.0625 0.689501,-0.206901 1.548903,-0.705214 2.4375,-1.40625 0.243306,-0.191951 0.501547,-0.400261 0.75,-0.625 C 14.224158,23.246369 13.524966,22.376202 12.84375,21.4375 11.705812,21.319516 10.620336,21.141989 9.625,20.90625 z m 12.75,0 c -0.995336,0.235739 -2.080812,0.413266 -3.21875,0.53125 -0.682284,0.93233 -1.382406,1.781392 -2.09375,2.53125 0.259309,0.235802 0.528119,0.45655 0.78125,0.65625 0.888597,0.701037 1.716749,1.19935 2.40625,1.40625 0.689501,0.206905 1.155748,0.136254 1.5,-0.0625 0.344253,-0.198755 0.64693,-0.580674 0.8125,-1.28125 0.165566,-0.700575 0.162817,-1.661184 0,-2.78125 -0.04689,-0.322582 -0.11221,-0.651719 -0.1875,-1 z m -7.5,0.6875 c 0.377587,0.465901 0.744028,0.905541 1.125,1.3125 0.380705,-0.406543 0.746657,-0.845561 1.125,-1.3125 C 16.755704,21.60674 16.377641,21.625 16,21.625 c -0.377641,0 -0.755704,-0.01826 -1.125,-0.03125 z"
     style="fill:#222222;fill-opacity:1;stroke:none" />
</svg>
