<?xml version="1.0" encoding="UTF-8" standalone="no"?>
<!-- Created with Inkscape (http://www.inkscape.org/) -->

<svg
   xmlns:dc="http://purl.org/dc/elements/1.1/"
   xmlns:cc="http://creativecommons.org/ns#"
   xmlns:rdf="http://www.w3.org/1999/02/22-rdf-syntax-ns#"
   xmlns:svg="http://www.w3.org/2000/svg"
   xmlns="http://www.w3.org/2000/svg"
   version="1.1"
   width="32"
   height="32">
  <path
      d="M 0,0 0,32 32,32 32,0 0,0 z m 7.125,4.40625 c 1.517363,0 2.75,1.2319262 2.75,2.75 0,1.5195562 -1.232637,2.75 -2.75,2.75 -1.5214074,0 -2.75,-1.2304437 -2.75,-2.75 0,-1.5180737 1.2285926,-2.75 2.75,-2.75 z M 21.5625,11.625 c 4.802666,0 5.71875,3.167916 5.71875,7.28125 l 0,8.375 -4.75,0 0,-7.4375 c 0,-1.771986 -0.03645,-4.0625 -2.46875,-4.0625 -2.469778,0 -2.84375,1.945663 -2.84375,3.9375 l 0,7.5625 -4.75,0 0,-15.28125 4.5625,0 0,2.09375 0.0625,0 C 17.727528,12.893603 19.253463,11.625 21.5625,11.625 z M 4.75,12 l 4.75,0 0,15.28125 -4.75,0 L 4.75,12 z"
      style="fill:#222222;fill-opacity:1;fill-rule:nonzero;stroke:none" />
</svg>
