<?xml version="1.0" encoding="UTF-8" standalone="no"?>
<!-- Created with Inkscape (http://www.inkscape.org/) -->

<svg
   xmlns:dc="http://purl.org/dc/elements/1.1/"
   xmlns:cc="http://creativecommons.org/ns#"
   xmlns:rdf="http://www.w3.org/1999/02/22-rdf-syntax-ns#"
   xmlns:svg="http://www.w3.org/2000/svg"
   xmlns="http://www.w3.org/2000/svg"
   version="1.1"
   width="32"
   height="32">
  <rect
      width="32"
      height="32"
      x="0"
      y="0"
      style="fill:#0977b6;fill-opacity:1;fill-rule:nonzero;stroke:none" />
  <path
      d="m 7.1166074,4.40563 c 1.517363,0 2.7505777,1.233185 2.7505777,2.7512587 0,1.5195563 -1.2332147,2.7528888 -2.7505777,2.7528888 C 5.5952,9.9097775 4.3654519,8.676445 4.3654519,7.1568887 4.3654519,5.638815 5.5952,4.40563 7.1166074,4.40563 m -2.3744148,7.592 4.7482519,0 0,15.270948 -4.7482519,0 0,-15.270948"
      style="fill:#ffffff;fill-opacity:1;fill-rule:nonzero;stroke:none" />
  <path
      d="m 12.467304,11.99763 4.553288,0 0,2.085629 0.06474,0 c 0.633777,-1.200148 2.18237,-2.46637 4.491407,-2.46637 4.802667,0 5.689778,3.162074 5.689778,7.275407 l 0,8.376282 -4.740741,0 0,-7.425926 c 0,-1.771986 -0.03481,-4.049763 -2.467112,-4.049763 -2.469777,0 -2.846517,1.929333 -2.846517,3.92117 l 0,7.554519 -4.744845,0 0,-15.270948"
      style="fill:#ffffff;fill-opacity:1;fill-rule:nonzero;stroke:none" />
</svg>
