<?xml version="1.0" encoding="UTF-8" standalone="no"?>
<!-- Created with Inkscape (http://www.inkscape.org/) -->

<svg
   xmlns:dc="http://purl.org/dc/elements/1.1/"
   xmlns:cc="http://creativecommons.org/ns#"
   xmlns:rdf="http://www.w3.org/1999/02/22-rdf-syntax-ns#"
   xmlns:svg="http://www.w3.org/2000/svg"
   xmlns="http://www.w3.org/2000/svg"
   version="1.1"
   width="32"
   height="32">
  <path
      d="m 0,0 0,32 32,0 0,-32 -32,0 z m 20.8125,7.125 c 1.38615,0 2.63024,0.58553 3.5,1.53125 1.14981,-0.21986 2.23028,-0.66867 3.15625,-1.3125 -0.37025,1.17244 -1.20453,2.11515 -2.28125,2.6875 0.004,0.009 -0.004,0.0222 0,0.0312 0.005,0.0122 0.0263,0.0189 0.0312,0.0312 0.89438,-0.11264 1.74613,-0.3733 2.53125,-0.75 -0.42985,1.02849 -1.20094,1.88894 -2.1875,2.40625 0.001,0.0417 0,0.083 0,0.125 0.0105,0.1663 0.0312,0.32918 0.0312,0.5 0,7.54028 -6.11597,13.65625 -13.65625,13.65625 -2.7127,0 -5.25001,-0.82336 -7.375,-2.1875 0.2556,0.0197 0.52061,0.0625 0.78125,0.0625 2.33414,0 4.4872,-0.80828 6.1875,-2.15625 -1.89878,-0.20553 -3.45659,-1.50402 -4.0625,-3.25 0.22064,0.03 0.45863,0.0625 0.6875,0.0625 0.51541,0 1.00278,-0.10558 1.46875,-0.25 -2.14465,-0.39402 -3.77999,-2.18782 -3.9375,-4.40625 0.50216,0.17689 1.06233,0.28125 1.625,0.28125 0.0727,0 0.14695,0.003 0.21875,0 -1.09326,-0.86482 -1.78125,-2.1853 -1.78125,-3.6875 0,-0.93704 0.2798,-1.7974 0.75,-2.53125 2.33615,2.81221 5.7719,4.62309 9.65625,4.84375 -0.0594,-0.30057 -0.0937,-0.61947 -0.0937,-0.9375 0,-2.62826 2.12174,-4.75 4.75,-4.75 z"
      style="fill:#222222;fill-opacity:1" />
</svg>
