<?xml version="1.0" encoding="UTF-8" standalone="no"?>
<!-- Created with Inkscape (http://www.inkscape.org/) -->

<svg
   xmlns:dc="http://purl.org/dc/elements/1.1/"
   xmlns:cc="http://creativecommons.org/ns#"
   xmlns:rdf="http://www.w3.org/1999/02/22-rdf-syntax-ns#"
   xmlns:svg="http://www.w3.org/2000/svg"
   xmlns="http://www.w3.org/2000/svg"
   version="1.1"
   width="32"
   height="31.333426">
  <g transform="translate(395.39685,-1238.6478)">
    <path
        d="m -385.82495,1238.6478 c -0.5615,0 -1.12444,0.022 -1.68679,0.053 -1.88872,0.1041 -4.48057,0.4765 -5.08699,2.3079 -0.71908,2.1717 2.82474,2.9775 4.36037,3.654 2.021,0.8904 -0.78601,2.2384 -2.35,2.836 -1.80414,0.6895 -1.87124,2.8331 -0.61341,3.8417 2.60403,2.0882 8.36573,2.0696 11.04208,1.3565 2.50658,-0.6679 4.24573,-3.3236 4.09984,-5.9885 -0.0761,-1.3904 -0.24155,-3.2583 1.20976,-4.0648 1.7157,-0.9534 4.03645,0.026 4.57167,1.9536 0.66206,2.3841 -1.05775,4.9516 -3.38462,5.3686 -1.9994,0.3584 -3.48195,2.7511 -2.00805,4.4029 1.31576,1.4747 3.43817,1.1958 5.12658,1.988 2.27035,1.0652 3.77361,3.7371 2.81024,6.189 -0.84846,2.1594 -3.42296,3.9352 -5.6789,2.8829 -1.58711,-0.7403 -1.62496,-2.6415 -1.65758,-4.1329 -0.0462,-2.1121 -0.1773,-4.5453 -2.0496,-5.921 -2.59407,-1.906 -5.92998,-1.4546 -8.93111,-1.8127 -1.83196,-0.2186 -4.0418,-0.052 -5.43161,1.337 -1.82215,1.8213 -0.96125,6.1135 1.70107,6.178 1.57572,0.038 3.06519,1.1642 1.04621,2.0541 -2.41938,1.0664 -4.96865,2.3268 -6.37918,4.7521 -0.41599,0.7153 -0.48702,2.1547 0.5971,2.0963 4.0837,-0.2198 7.53865,-3.0506 9.94163,-6.1715 1.06843,-1.3876 1.08571,-4.1699 -0.83724,-4.7086 -1.28861,-0.361 -3.33066,-2.205 -1.20976,-2.7693 2.02775,-0.5396 4.20019,0.5131 5.78598,1.7504 1.69382,1.3215 1.28923,3.719 1.50182,5.6282 0.30234,2.7152 2.45344,5.2232 5.22134,5.3544 2.84698,0.135 6.04754,0.1242 8.34829,-1.6868 1.6158,-1.2718 2.44331,-3.4402 2.36372,-5.5744 -0.0746,-1.9998 -0.51807,-3.9645 -1.90551,-5.4926 -1.54765,-1.7045 -3.84305,-2.5628 -6.104,-2.3942 -1.3422,0.1001 -1.82534,-1.4828 -0.11682,-1.5849 2.14462,-0.1282 4.56437,-1.3979 5.32128,-3.5793 1.01995,-2.9395 -0.80486,-6.059 -3.22691,-7.8713 -1.44407,-1.0806 -3.1985,-1.3616 -4.87476,-1.5525 -0.24736,-0.028 -0.50287,-0.042 -0.76259,-0.04 -1.81809,0.015 -3.82179,0.7987 -4.36009,2.6824 -0.63,2.2046 -0.28326,4.3536 -0.7282,6.7543 -0.52064,2.8092 -6.40617,3.0834 -7.58709,1.432 -0.81473,-1.1393 0.89135,-1.6849 2.39329,-1.9369 1.64532,-0.2762 2.92352,-2.3589 1.8153,-3.7721 -0.61539,-0.7847 -3.91862,-2.0553 -2.43668,-3.0471 1.70791,-1.1432 2.70758,1.7858 4.55609,1.1533 0.88952,-0.3044 1.08777,-0.9774 0.8898,-1.6498 -0.21074,-0.7158 -0.87109,-1.4309 -1.62643,-1.6992 -1.20528,-0.4281 -2.43423,-0.5525 -3.66954,-0.5562 z"
        style="fill:#010101" />
  </g>
</svg>
